<?xml version="1.0"?>
    
<!--********* Copyright (c) 2024 Pareto Softare, LLC DBA Simplemaps.com ***************************************
************* Free for Commercial Use, full terms at  https://simplemaps.com/resources/svg-license ************
************* Attribution is appreciated! https://simplemaps.com *******************************************-->

<svg baseprofile="tiny" fill="#6f9c76" height="1000" stroke="#ffffff" stroke-linecap="round" stroke-linejoin="round" stroke-width=".5" version="1.2" viewbox="0 0 1000 1000" width="1000" xmlns="http://www.w3.org/2000/svg">
 <g id="features">
  <path d="M605.7 156.5l-4.4 4.4-4.5 1.7-9.5 7-1.7 0.1 0.1 1.9 0.5 1 0.7 0.5 7.4-0.6 3.1 0.7 2.7 3-2 7.7-1.2 3.3-9.5 18.8-0.4 1.3 0 1.5 0.5 2.4 0.7 2.9 6.8 25.9 1 2.1 1.3 1 10.6 4.5 10.6 4.5 1.2 0.9 1 1.6 3.1 6.5 1.4 3 6.3 13.5 2.3 3 11 10.5-0.8 1.3-0.4 1-0.2 1.2-0.3 6.3-0.2 1.3-0.9 4.3-0.7 1.8-14.6 20.2-0.5 1-0.4 1.7-0.2 0.7-0.4 0.6-1.9 2.3-12.2 23-1.8 7.8 1.4 6.7 8.6 14.7 1.5 5 0.1 0.2 1 1.8 0.2 0.8 0 0.9 0.2 1 0.3 0.7 4.2 7.2 0.4 1.6 0.4 3.9 0.2 1.8 0.7 3.2 0.9 2.9 2.1 5.4 5.2 9.8 3.1 4.3 0.9 2.4 0.8 3.6 1 7 0.4 1.6 1.4 3.8 0.5 1.5 1.1 4.5 1.3 3.9 0.3 1.6 1.1 8.4 0.1 2.2-0.1 1.9-0.5 0.9-1.3-0.5-2.3-1.5-8.8 2.7-2.3 1.7 1.1 1.8 2.8 2.2 1.1 1.8-0.4 1.1-3 3.6-0.5 1.3-0.2 0.5-0.3 3.3 0.5 7.9-0.4 3.3-3.9 5.2-1.3 3 1.7 1.8 5.2-0.2 2.4 1.1 0.3 3.4-0.4 0.7-0.4 0.6-0.3 0.6-0.1 0.9 0.5 0.7 0.6 0.2 0.5 0.3-0.2 1.2-0.9 1.2-5.7 1.4-1.5 1.4-1 2.4-0.4 3.8 1.7 7.4 2.4 5.9 3 3.8 3.6 0.9 6.8 0.1 1.5 0.7 0.6 0.7 0.1 0.5-0.2 0.6-0.2 0.9 0 1.1-0.1 0.5 0.1 0.5 0.4 1 0.4 0.7 1.4 1.6 0.7 1.7-0.3 1.7-0.7 1.4-0.9 1-6.3 3.1-0.3 0.4-0.2 0.5 0.2 0.2 0.2 0.2 0.2 0.1 0 1.5 0.1 0.8 0.3 0.8-0.1 0.2 0 0.3 0 0.2 0.1 0.3 0.4 0.2 0.1 0.2-0.1 0.5 1.6 1.1 1.3 1.7-0.3 2-0.8 2.2-0.3 2.2 0.8 1.7 1.5 1.4 2.6 1.7 5.8 2 1.8 1.5 1.1 1.5 0.8 1.5 0.9 1.2 2.1 0.6 1.3 0.8 0.8 1.3-0.3 1.7-0.7 1.7 0 1.4 0.5 1.4 0.6 1.6 0.9 3.6-0.2 2.9-1 2.5-1.6 2.5-6.7 8-2.4 5.5-2.3 3.2-5.6 2.4-1.9 1.4-0.7 0.5 0.8 2.2 8.9 11.1 5.1 4.1 2.2 3.4 0.8 1.6 1 0.9 12.3 7.1 5.7 7.1 7.5 5.3 1 1 0.8 1.4 0.2 1.6 0.1 1.6 0.2 1.7 0.4 1.7 0.4 1.2 1 1.3 2.3 1.8 1.1 1.2 2.4 3.8 0.8 0.8 0.5 0.4 0.9 1.5 0.5 2 0.6 2 1.3 1.1-3.3 6.4-1.5 3.1-1.1 3.4-1.7 7.6-0.6 1.8-1.7 2.7-0.7 1.9-0.9 3.8-0.6 1.7-0.8 1-1.9 1.2-0.6 0.7-0.4 0.9-0.7 1.7-5.3 6.1-0.5 0.8-0.9 2.7-0.6 1-0.7 0.7-4.2 3.2-3.3 3.4-1.5 0.8-0.6 0.6-0.5 0.7-1 2.6-4.7 6.6-5.2 6-7.2 11.1-6.2 9.6-5 5.3-0.8 1.2-0.9 2.7-0.7 1.3-5.3 6.4-1.1 0.9-2.4 1.1-0.8 0.8-0.7 1.2-0.7 1.9-0.6 1.6-5.4 5.8-1.1 1.7-0.4 0.9-0.6 1.1-2.2 3.4-2.7 2.5-5.5 3.5-2 1.6-2.6 2.7-2.2 1.2-0.6 0.7-1.1 2-2.3 2.6-0.7 1.1-0.6 1.6-1.4 2.3-3.3 0.9-1.7 1.3-5.3 5.6-3.4 5.1-3.6 2.6-5.3 7.1-0.9 1.1-3.2 3.4-3.2 3.9-0.6-0.7-0.5-0.9-0.6-0.5-0.8 0.5 0.1 0.2 0.3 0.6 0.1 0.2-0.6 0.4-0.1 0.8 0.2 1 0.5 0.9-0.6 0.4-0.2 0.1 0.5 0.5 0.3 0-1.3 1.3-0.5 0.2-2.5-0.5 0.3-0.8 1.2-0.6 0.5-0.6-1.5-0.3-0.7 0.1-0.6 0.7-0.3 0.9 0.1 0.6 0.3 0.6 0.4 1-1.4-0.5-3.1-2.7-1.3 0.6 0.4 0.1 0.1 0.2 0.3 0.7-0.2 0.2-0.4 0.6-0.2 0.3 0.4 0.3 0.4 0.3 0.3 0.4 0.2 0.5-1.9-0.4-3.2-2.6-1.6-0.6-2.9-0.2-0.6-0.3 0-1 0.9-0.3 1.9 0.3-0.8-0.8-2.7-1.8 0.6-1.4-0.5-0.5-0.9 0.4-0.5 1 0.2 1.1 0.5 1.2 0.2 1-0.9 0.8-0.1-1-0.2-0.2-0.7 0.2-0.5-0.2-0.5-1.1-0.4-0.3-0.3 0.3-0.3 1-0.3 0.3-0.3-0.2-0.6-1.1-0.4-0.3-0.3 0.1-0.4 0.3-0.4 0.4 0 0.5 0.1 0.7-0.2 0.5-0.3 0.3-0.5 1.6-0.8 0.4-1.7-0.2 0.9 1.2 0.3 0.9-0.1 0.8-0.2-0.2-1.2-1.3-0.3-0.6-3.4 1.3-1.1 0 0.3-0.4 0.2-0.5 0.3-1.2-0.7 0-0.7 0.2-0.8 0.5-0.5 0.6-0.1 0.6 0 1.3 0 0.5-0.3 0.3-0.8 0.5-0.3 0.4-0.5 0.2-0.7-0.8-0.7-1-0.5-0.7-0.7-0.1-0.9 0-0.6 0.4-0.1 0.8-0.8 0.3-1-0.5-0.9-1-0.7-1.2-0.3-1.4 0.6-0.8 1-0.6 0.7-0.7 1-2.1 0.1-0.5-0.1-1.7 0.1-0.7 0.5-0.7 1.7-1.4 1.5 0.2 3.2 2.5-0.8-3-1.2-2-1.5-0.9-1.6 0.7-0.9 1.1-1.4 2.7-3.2 6.3-0.4 2.5 1.1 2.4-0.6 1.2-0.3 0.5-0.4 0.3-1 0-0.3 0.3 0.3 1.2-0.4-0.1-0.4-0.4-0.7-1 0.1 0.9-0.2 0.4-0.2 0.2-0.4 0-0.5 0.3-0.1 0.5 0 0.5-0.2 0.3-0.7-0.6-0.5-1.2-0.4-1.3-0.3-0.5-0.5-0.4-0.6-0.9-0.6-0.8-0.5 0-0.1 1 0.5 1 1.2 1.7-3.5-0.7-0.4 0.1-0.7 0.9-0.3 0.1-0.3-0.5-1.5-1.5-1.2-0.7-0.4-0.4-1.4-1.9-1.2-0.9-1.3-0.7-1-0.1 0 0.6 2 1 0.4 0.5 0.8 1.3 0.9 0.5 0.3 0.7 0.1 0.8 0 0.6-0.3 0.4-0.5-0.1-0.4 0.1 0.2 0.9 0.4 0.6 1.4 0.9 0.7 1.4 0.3 0.4 0.5 0.2 0.2 0.4 0 0.9-0.3 0.9-0.3 0.4-1.9 0.5 0-1.7-1.6-2.4 0.4-1-0.5 0-0.3 0.4-0.3 0.4-0.3 0.2-0.5-0.1-0.3-0.2-2.2-2.2-0.8-0.6-0.9-0.4 1.3 1.8 0.8 0.8 0.7 0.4-0.4 1.6-0.8 1.5-0.1 1 0.4 1.1 1 2 0.4 1.5-0.8-0.1-0.6-0.2-0.4-0.5-0.5-0.7 0.3-0.5-0.6-0.9-0.7-0.3-0.8-0.1-0.7-0.3-1.2-1.5-0.6-0.5-0.5 0.5 0.2 1.3 1.3 1 2.5 1.3-2.5 1 0 0.5-0.7 0.4-0.9-0.5-3-3.5-0.2-0.5 0-1 0.3-0.7 0.4-0.3-0.7-0.5 0-0.6 2 0-0.5-1.6-0.8-0.1-0.9 0.6-0.6 0.7-1 0.6-2.8 0.9 0 0.5 0.6 0.3 0.2 0.8-0.1 1-0.2 1-0.1 0.2-0.3 0.1-0.2 0.3-0.2 1.2-0.3 0.4-0.3 0.2-5.2 0.1 0.1-1.1-0.5-0.5-1.4-0.4 0.1 0.3 0.2 0.9 0 0.3-1.1 0.5-3.5 0-0.2 0.1 0 0.3 0 0.9-0.2 0.4-0.4-0.2-0.7-0.5 0 0.6 1.3 0.9 0.5 0.6-0.4 0.2-0.4 0 0.5 0.8-0.7 0.5-2.2 0.6-0.9-0.1 0.1-0.5 0.1-0.2 0.1-0.3-1.6 1-0.4 0.6 0.7 0.5-0.2 0.4-0.6 0-0.6 0.7-0.7-0.3-0.4-0.8 0.4-0.6 0.4-1 0.2-1.2-0.3-0.9-0.7-0.1-0.5 1-0.9 3.6-0.4 0.6-3.1 0.2-0.8-0.2-0.4-0.9 1.4-0.5-0.1-1.3-1-1.1-1.3 0.3 0.8 2.1-0.6 0.3-1 0.9-0.5 0.3-1.9 0.3-1.2 0.4-0.3 0.2-0.2 0.3-0.1 0.6 0.1 0.9-0.2 0.3-0.5 0-0.2-0.6-0.2-0.8-0.1-0.7-0.4-0.5-2.3-1.3-0.6-0.1-0.1 0.2 0.4 0.8 0.6 0.5 0.5 0.2 0.2 0.4-0.3 0.9-0.5 0.5-0.5 0.3-0.5 0.3-0.3 0.9 2.5-1-0.2 0.7-0.3 0.5-0.7 0.8 0.7 0.6 0 0.5-2.5 1.8-1.4 2.2-0.7 0.7-0.9 0.3-1.1 0.1 0.3-1.1 1.1-2.4 0.4-0.6-0.7-0.1-0.9 0.9-1.7 2.3-0.3-1.3-0.6 0.4-0.8 1-0.6 0.4 0.2-1.2 0.5-0.6 0.5-0.4 0.5-0.7 0.1-0.5 0-0.6 0-0.8 0.3-0.9-1.8-0.1-0.9 0.3-0.6 0.9 0.5 0.5-1.2 0.8-0.3 0.2-0.5 0-1.3-0.5-1-0.1-0.7 0.3 0 0.7 0.9 0.6-0.7 0.5-0.6-0.2-0.6-0.5-0.6-0.3-0.3 0.1-1.4 0.8-0.4 0-0.4-0.4-0.7 1.2-0.7-0.1-0.3-0.7 0.7-0.9 0-0.5-0.7 0.1-0.4 0.5-0.3 0.7-0.4 0.7-0.6 0.7-0.6 0.3-2.5 0.4-2.7 2.7-1-0.8-6.1 0.8-0.5-0.3-0.4-0.9-0.3-0.3-0.5 0-2.4 0.7-1.6 0.8-0.9 0 0.4-1.1 1.6-2.9 0.6-0.6 1-0.3 0.6-0.4 0-0.6-0.2-0.6-0.1-0.7 0.1-0.7 0.4-0.8-1.4 0.5-0.4 0.3-0.3 0.6-0.2 0.8-0.2 0.6-0.6 0.3-0.4 0.3-0.1 0.8-0.1 0.9-0.3 0.8-0.3 0.5-0.9 0.6-0.3 0.4-1.2 2.2-1.5 1.6-3.3 1.9-0.5 0.8 0 1.4 0.4 1.1 0.6 0.3 0 0.5-6.3 1.1-0.4 0.4-2.3-0.4-0.8 0.2-0.8 0.4-2.2 0.5-0.6-0.1 0.7-0.5 0.9-1.7 0.6-0.4 1.5-0.3 5.2-2.5 1.5-0.2-0.3-1.5 0.2-0.6 0.4 0 0.4 0.2 1.3-0.1 0.9-0.4 0.8-1.1 0.9-1.6 0.6-1.6 0.6-2.2 0.3-1.5-0.7 0.6-2.4 5.4-1 1.4-0.7 0 0-0.2 0.1-0.5 0.1-0.3-0.4-0.4-0.4-0.1-0.4 0.1-0.3 0.4 0.1 0.5-1.5-0.5-0.4 0.7-0.1 0.8-0.3 0-0.2-0.5-0.1-0.8 0.3-2.2 0.1-0.3 0.6-0.6 2.8-1.1 0.5-0.8 0.9-1.8 0.6-0.5-2-0.8-3.6 0.8-1.8 0-0.8-0.4-0.9-0.5-0.6-0.8-0.2-1.1 0.2-0.9 0.6-0.9 1.2-1.5-0.7-1-0.2 0.5-0.4 1.2-0.2 0.4-0.3 0.2-0.7 0.4-0.3 0.3 0-1.2-0.4-0.8-0.6-0.4-1.3-0.4-0.7-0.9-0.5-0.4 0.4-0.7 0-0.7-0.2-0.6-0.5-0.5 2-3.5 0.8-1.1 2.4-2.4 0.7-1.2 0.2-0.7 0.3-1.2 0.2-0.6 1-0.9 0.4-0.5-0.1-0.7-0.7-0.2-1 1-0.9 1.5-0.4 1.3-2.1-0.7-2.4 1.1-5.2 4.7-4.6 1.4-2.2 1.1-1 0.1 0.5-0.7 2-1.4-0.7-0.2-0.1-0.6 0.7-1.5 0.4-0.4 1.7-0.8-1.8 0.2-0.9 0.4-1.7 1.4-0.9 0.4-2 0.1 0.3-0.5 0-0.5 0-0.5 0.2-0.5 0.2-0.4 0.7-0.6 0.8-1.2 1.1-1.3 0.2-1.1 1.9-2.2 1.2-0.9 0.1-1.1-0.3-0.7-1.6 1.7-1.3 0.3-3-0.2 0.7-2-5.8 1.5-1.3-0.1-0.4-0.2-1.1-1.4-2.5-1.9-0.8-0.4-1.6-0.1-0.2-0.6-0.1-0.9-0.3-0.4-0.7 1.1-0.7 0.8-0.6-0.2-1.1-1.4 0-0.2 0-0.6 0-0.2-0.1 0-0.5 0.1-0.1-0.1-0.4-0.3-0.2-0.1-0.1-0.3 0.2-0.9-1.8 0 0.1-0.5 0.2-1 0.2-0.5-0.7-0.4-1-0.3-1.1-0.1-0.8 0.3-0.3 0.8 0.1 0.9 1 1.9-1.7-0.6-0.8 0-0.8 0.6 0.2-1.3 0.5-2.3 0.1-1.6 0-1.1 0-1 0.5-0.8 1-0.2-0.5-0.6-0.2-0.8 0.1-0.8 0.4-0.9-2.5 1.9-0.7 1-0.9 0.7-1.9 0.4-0.7 0.7 0 0.6 0.3 1-0.1 0.7-0.3 0.5-0.1 0.3 0 0.4 0 0.9-0.5 1-1.1 0.5-1.2 0.1-0.8-0.4 1-0.9-0.6-1.6-1.9-3.1 0.6-0.1 1.7 0.6 0-0.5-0.9-0.4-2.6-0.1-1.1 0.4-0.5 0.1-0.3-0.2-0.6-0.7-0.3-0.1 0-0.6 0.2 0 0.2-0.1 0.3-0.3-0.5-1.1 1.1 0.4 0.7 0.1 0.2-0.5-1.7-1.6-0.8-0.4-0.8-0.9-0.6-1.2-0.4-1.1 0.1-0.4 0-0.2-0.1-0.4 2.7 0.8 0.5 0 0.2-1-0.1-0.8-0.4-0.7-0.3-0.9 1.7 0 0-0.5-0.8-0.1-0.7-0.3-0.8-0.5-0.7-0.7 0.6-0.4 0.3-0.1 0.4 0-0.8-1.2-0.5-0.3-0.5-0.1 0.2-1-0.2-1.1-0.5-0.6-0.5 0.2-0.3-0.3-0.2-0.4-0.2-0.4-0.1-0.6 0.4-0.7-0.7-1.5 0.6-0.3 1.8 0.4 0.9-0.1 0.8-0.9-0.4-0.3-0.4-0.1-1 0-0.2-0.2-0.8-1.4 0.4-0.2 0.7-0.7 0.3-0.2 0.3 0.2 0.3 0.5 0.4 0.4 0.4 0-0.2-0.8-0.2-0.8-0.2-0.7-0.3-0.3-0.4-0.2-0.2-0.3-0.1-0.5-0.2-0.6-1.6-3.6-0.7-0.6 0.6-0.8 0.2-0.2-1-0.9-0.4-0.6-0.1-1.1 0.8 0 1.6 1.2 0.9 0.3 0.8-0.2 0-0.4-0.1-0.2-0.6-0.5-0.9-0.2 1.1-0.7 2.1 1.1 1.1-0.4-0.5-0.5-0.5-0.9-0.2-1 0.5-0.7-0.4-1.9-0.2-0.8-0.4-0.5 0.3-0.1 0.9-0.5-0.2 0.1-0.3-0.1-0.2-0.2-0.3-0.2 0.5-1.1-0.5 0 0.5-0.5 0.6-0.2 1.2 0.1-0.2-0.8-0.1-0.2 1.1-0.7 1.2-0.3-0.5-1.7-0.8-0.7-1.7-0.8 0.3-0.8 0.5-0.4 0.4-0.5-0.2-1 1.5 0 0-0.5-0.1-0.5 0.1-1.4 0-0.7-0.1-0.5-0.3-0.2-0.1-0.4 0-0.4 0-0.8 0-0.4-0.2-1.5-0.3-0.5-0.5-0.6-0.5-0.3-1-0.4-0.5-0.4 1-0.6 2.4 0.2 1.1-0.6-0.5-1.2-0.6-0.8-1.2-1.2-2.5-1.3-0.7-0.8 4.9 0.7 1.4-0.7-0.8-2.3-0.2-0.4-0.6-0.2-0.9 0.4-0.6-0.2-1.5-2.1-0.3-0.9 0-0.3 0.2-0.2 0.6-0.2 1-0.2 4.2 1.9 2.4 1.6 1.1 0.4 0-0.6-2.6-2.6-1.2-1.9-0.8-3.3-0.7-0.6-0.8-0.4-0.6-0.7 0-0.7 0.3-1.1-0.1-0.6-0.9-1.9 0-0.5 0.7 0.2 1.3 1.1 0.5-0.3-0.9-1.2-2.6-1.8-0.8-1.8 0.1-1 0.4-1 0.2-1.1-0.1-0.9-0.5-0.5-0.6-0.2-0.4-0.5 0.2-1.2-1.2-1.7-0.5-1-0.4-1.1 0.4-0.3 0.3-0.5 0.1-0.5-0.8-0.5-0.1-0.7-0.1-0.7-0.3-0.6-0.3-0.1-1.7 0.1-0.3-0.1-0.2 0-0.8-0.7-0.5-0.2 0.7-1.6-0.6-0.6-1.6-0.5 1.5-5.1 0.3-2 0.2-3.7 0.2-0.7 0.6 1.7 0.6-2.3 0.2-1.1-0.3-0.9 0.5-0.9 1.2-0.9 0.5-0.6 0.2-1.1-0.4-0.8-1-1.1 0.8-2.8-0.8 0.1-0.5 0.8-0.4 1.1-0.6 0.8 0.2-1.3 0.4-2.3 0.2-1.3 0-3.7 0.2-1.2-2 0.8-0.5-0.3-0.3-0.8-0.1-1.1 0.2-1 0.4-0.9-0.2-1.2-2.5 4.1-0.1 0.9 0.6 1.1-0.9-0.2-0.1-1.2 0.2-1.6 0.2-1.4-0.2-0.1-0.3-0.3-0.2-0.1 0.3-1 0.2-0.3 0.2-0.4-0.6-0.5-0.7 0.2-0.7 0.6-0.5 0.8-0.1-1 0.7-2.5 0.2-1.4-0.7 0.6-0.4 0.2-0.3-0.4-0.2-1.5 0.1-1.4 0.4-1.1 0.5-0.8 0.6-0.6-0.2-0.6-0.9-1.5 0.8-0.7 0.7-1.1 0.8-0.7 0.8 0.2-0.6-1.5-2.6-0.7-0.6-1.1-0.5 0.3-0.4 0.6-0.6 1.3 0.1-1.9 0.5-3.2-0.1-1.5 0.7-0.2 1-0.8 0.9-1.1 0.4-1.2 0-0.9-0.2-0.1-0.2 0.1-0.3-0.2-0.7-0.9-0.2-0.5-0.4-1.4 0.3-1.1 0.5-0.8 0.8-0.3 0.8 0.8 0.4 0.2 0.2-0.7 0.2-0.2 0.6-1.2 0.3-0.5 0.2-1.4 0-1.1 0.1-1.1 0.7-0.9 0.9 0.1 2.5 1.1 0.8-0.4 0.2-0.4 0.7-0.8 0.3-0.5 0.2-0.5 0.1-1.1 0.4-1.1 0.4-1.7 0.1-0.6 0.2-0.1 1.3-0.6-0.6-2.9-0.2-1.5 0-1.8 0-0.6 0-0.3 0.1-0.2 0.4-0.6 0.4 0 0.3 0.4 0.2 0 0.1-1.2 0.5-1.1 1 0.6 1.6 1.9 1.1 0.5 1.1 0.9 1.2 0.5 1.1-0.8-1.6-2.3-2.4-2.3-0.7-1-0.3-1.1 0.7-1.2-0.4 0.3-0.5 0.2-0.6-0.2-0.4-0.5-0.1-0.9 0-0.9 0-0.6-0.5-0.2 0.2-0.9 0.5-0.3 1.1 0.1 0-0.5-1.5-0.6-0.4-0.6-0.2-1.4 0.3-0.7 0.7-0.6 0.8-0.5 0.5-0.1 2.1 2.3 1.2 0.5 0.8-1.7 0.7 0.7 1 0.7 1 0.2 0.8-0.5-0.5-0.4-1.2-0.4-0.5-0.3 0-0.6 1.5-1.1 0.5-0.2 1.5 0.2 0.8-0.3 1.8-1.3 1-0.1-0.4 1.2-0.1 0.8 0.3 3.2 0 0.7-0.4 0.9 1 0.2 2.9 2.6-0.5-1.8-0.6-1.6 1.1-0.5 0.3-0.5 0.4-0.7 0.2-0.8 0.1-0.7 0.1-0.7 0.4-0.6 0.6-0.5 0.4 0.4 0.3 0.7 0.4 0.5 0.6 0 1-0.8 0.5-0.3 0.4 0.1 0.7 0.5 0.6 0 0.2-0.3 0.1-0.3-0.1-0.4 0.1-0.2 0.2 0 0.3 0.2 0.2 0.3 0.1 0.1 1.5-2.3 0.8-1.5 0.4-1.3 0.3 0 0.8 2.1 0.9-0.6 0.8-1.8 0.8-1.3-0.4-0.5-0.2-0.6-0.4-1.2-0.5-0.9-1.1-1.1-1.8-2.7-0.2-0.4-0.6-0.1-0.6-0.2-0.4-0.5-0.4-0.9-0.2-2.2 0.8-1.1 1.3 0.1 1 1.2 1.1 1.6 1.2 0.5 1.1 0.2 1.3 0.8-3.1-3.5-1.4-2.3-0.3-2.1 0.4-1.1 0.4-0.3 1 0.2 0.6 0.4 0 0.8-0.2 0.9 0.1 0.8 0.8 0.4 0.9 0.2 0.6 0.7 0 2.1 0.4-0.4 0.6-0.9 0.5-0.4 0-0.6-0.3-0.8 0.1-0.7 0.3-0.7 0.1-0.9 0.1-0.1 0.7-3 0.3-0.6 0.4-0.4 0.4-0.6 0.1-1 0.3-0.1 1.5 1-0.3-1.1-1.5-2.9 0.7-1.1 0.3-0.4 0.3-0.3-0.1-0.5 0-0.3-0.1-0.3 1.5 0.4 0.7-0.3 0.3-1.5-0.1-1.6-0.1-0.8 0.2-0.1 0.7 0.4 0.6 1 0.3 0.4 0.2-0.5 0.1-0.8 0.4-0.4 0.4-0.1 0.3 0.2 0.6 0.7 0.4 0.9 0.2 1-0.2 1.1 0.4 0.7 0.8 1.8 0.2 0.4 0.6-0.1 0.7-0.3 0.6-0.4 0.4-0.7 0.3-0.2 0.4-0.1 0.3-0.1 0.2-0.7 0-0.6 0-0.5 0.1-0.4 0.1-0.5 0.6-0.8 1.2-0.6 0.5-0.9-0.6-0.6-1.9-1.1 2.5 0-0.7-1.3-0.3-0.4 1 0.5 0.5 0.1 0.4-0.4 0.1-0.4 0.1-0.7-0.1-0.6-0.1-0.3-0.7-0.4-0.3-0.9 0.1-1 0.8-0.5 0.7 0.1 0.5 0.6 0.7 1.8 0.6 0.8 0.4-0.1 0-0.9-0.4-1.1 0-0.1 0.2-1.1-0.1-0.4-0.1-0.8 2.1-2.2 0.6-0.9 0.4-0.4 1.7 0.7 0.5-0.3 0.3-0.5 0.4-0.4-0.1-0.1-0.3-0.4 0-0.6 0.5-0.6 0.4-0.3 1.2-0.3 2.8 0.1 1.2-0.4 0.7-1.4 0.9 1 0.8-0.1 0.8-0.9 0.8-1.2-1.1-1.1-0.5-0.7 0-0.8 0.3-1.1-0.1-0.8-0.2-0.8-0.2-0.8 0.1-0.5 0.5-3.8 0.5-0.7 0.7 0 1.3 0.7 0.2 0.2 0.4 0.7 0.4 0.2 0.4 0 0.3-0.3 0.4-0.2 1.2 0.8 2.4 0.4 0.6-0.9-0.5-2-0.9-2-0.6-1 0.3-0.9 0.4-0.1 1.1 0.4 0.3-0.3 0.8-1.4 0.4-0.5 0.2-1.1 0.7-1.1 0.9-0.9 0.1-0.1 0.6-0.9-0.2 0 0.1-1.4 0.1-1.2 0.5-0.6 0.8 0.5 0.5 0.1 1.8-1 0.5-0.5 0.3-0.8 0.7-2.7 0.8 0.1 1.6 1 0.6 0.7-0.3-1-0.2-1.1-0.1-1.2 0.1-1.4 0.5-1.3 1.1-1.6 0.5-1.2 0.4-2.6 0.3-0.8 0.8-0.7 1.6-0.7 0.6-0.8-0.2-1.4 0.5 0.1 0.4-0.1 0.4-0.3 0.4-0.6 0.1 0.1 1.5-1 1.4 0 0.1-0.3 0-1.5 0.1-0.7 0.2-0.5 0.4-0.2 1.1 0.3 0.4-0.3 0.2-0.7 0.2-1.1 0.2-0.4 0.8-0.6 0.7-0.2 0.7-0.5 0.6-1.6 0-0.6-0.2-0.7 0-0.7 0.7-0.6 0-0.7-0.1-0.7-0.1-0.1 0.2-1.8 0.3-1 1-1.9 0.2-0.7 0.1-0.8 0.2-0.6 0.2-0.3 0.5-0.2 1.1-1.6 1.5-0.9 0.7-0.7 0.5-1.3-0.3-1-0.2-0.3 0-0.5 0.5-1 0.5-0.5 1.1-0.9-1.4-1.3-0.4-0.8 0.6-0.3 0.8 0.1 3 1.7 0.4-0.1 0.3-0.5 0-0.4-0.4-0.6-0.1-0.5 0.3-1.5 0.7-0.4 1.5-0.1 0.2-1.7 1.3-0.9 4.6-0.7 6.6-3.7 0.7-0.2 0.7 0.3 0.3 0.8 0.3 1 0.5 0.9 0.3 0 0.3-0.3 0.3-0.1 0.4 0.4 0.1 0.3 0.1 1.3 0.2 0.4 0.5 1 0.6 0.7 0.7 0.4 0.8 0.1 0 0.5-0.3 0-0.3 0.1-0.6 0.5 1.2 0.6 3.6-1.2 0.2-0.3-0.4-1.6 0.1-0.8 0.5-2.7 0.1-0.6-0.4-1.1-0.4 0-0.5 0.4-0.5 0.2-0.5-0.4-1-1.2-1.4-0.6-0.7-0.8-1.2-2.5 0.2-0.2 0.4-0.7 0.2-0.2-0.3-0.6 0.6-0.3 3.7 0.6 0.7 0.5 1.3 1.5 0.9 0.8 0.8 0.2 0.7-0.4 0.1-1.2-0.2-1.1-0.5-0.8-0.2-0.8 0.2-1.4-0.3-0.5-0.1-0.4 0-0.4 0.1-0.5-0.8-1.1-0.5-0.8-0.2-0.8 0-1-0.2-0.7-0.2-0.5-0.3-0.5-1.2-1.2-4.1-1.2 0.2-1.9 0.3-1 1.2-1.4 0.5-0.7 0.4-1 0.1-1.2-0.2-1.3 0.4 0.1 0.5-0.1 0.4-0.2 0.5-0.4-0.3-0.1-0.5-0.4-0.3-0.1 0.4-1.4 0.1-0.4-0.6-0.5-0.3-0.1-0.3 0 0.5-0.9 0.5-2.8 0.5-1.2-0.1-0.3-0.3-0.6-0.1-0.3 0.3-0.1 0.3-0.2 0.4-0.9-2.5-3.1 0.5-0.3 1 0 0.5-0.3 0.4-0.5 0.6-1.3 0.3-0.6-0.4-1.5 0.5-3.3-0.2-1.6-1.1-2-1.1-1.7-2.8-2.9-0.8-0.4-1 0-0.8 0.3-0.8-0.2-0.9-1.4-0.2-0.7-0.1-0.7-0.1-0.2-0.2-0.9-0.4-0.8-0.5-0.3-0.9 0.3-0.5-0.7-0.7-0.5-1.7 0.4-0.8-0.1-0.5-0.6-0.6-1.4-0.4-0.5-1.4-0.7-1.4-0.3-1.5 0.3-1.3 0.7-1 1.2-0.4 0.4-0.7 0.2-0.5-0.4-0.1-0.8-0.1-3.5-0.1-0.6-0.3-0.4-2.3-1.3-0.5-0.7-0.6-1.2-0.4-1.3-0.2-1.7 0.4-2.3 0.5-1.7 2.1-4.7 0.5-1.7 0.3-0.6 0.6-0.5 1.1-0.3 0.3-0.4 0.1-1.2-0.6 0.7-1.9 1.2-0.3 0-0.3 0-0.3 0.2-0.1 0.7 0 0.9 0 0.5-0.1 0.1-0.9 0.9-1.6 4.1-1 1.2-0.9 0.1-0.7-0.2-0.8 0-0.8 0.7-0.1 0.3-0.1 0.4-0.1 0.5-0.3 0.4-0.4 0.2-1.7-0.9-1.1-1.7-0.4-0.4-1.5-0.6-1.4-1.2 0.3 1.2 0.1 1.4-0.2 1.1-0.7 0.6-0.7-0.3-0.7-1.1-0.6-1.2-0.3-1.1 0-0.6 0-1.6-1.5-2.6-0.8-3.6-0.9-1.7-0.8-1.8 0.1-2.1-0.1-1.3-1-4.6-0.3-1.2-0.4-0.6-0.9-1-0.4-0.6-0.3-0.8-2-6.1-0.9-1.2-3.8-1.4-1.3-1.2-1-1.6-1.2-4.6-0.4-2.4-0.5-2-0.1-1.1 0-0.9 0.3-1.2 0.2-0.9 0-1.3-0.2-1.7-0.1-1.2-0.1-1-0.7-1.7-0.2-1.1 0.4-2.1 0.9-1.4 1.1-0.8 0.9-0.4 0-1.5 0.9-0.8 1.1-0.6 0.8-0.9 0-1.1 2-1.4 0.8-0.8 0.3-1.4 0.1-1.6-0.2-1.7-0.2-1.7 0.3-1.5 0.3-1.7 0.2-1.9 0-1.9-0.5-3.4 0.1-0.7 1.2-2.1 0.5-1.7 0.8-0.2 0.9 0 0.5-0.3 0.2-0.8-0.1-0.7-1.5-4.6-1-2.6-0.8-1.3-1.4-2.1-2.1-4.8-0.9-1.2-1.2-0.5-0.6-0.7-0.9-1.5-1.4-3.1-0.2-0.8-0.2-0.7 0-0.8-0.1-1.2-0.1-1.1-0.3-0.5-0.4-0.5-1-1.9-0.8-1.1-0.6-1.2-0.3-1.9 0.4-0.8 0.5-0.9 0.3-1 0.3-1.2-0.7-0.4-0.2-0.7 0.1-1.8 0.3-1.5 0.8-0.9 4.2-2 1-1.6 0.8-3-1.3-0.8 0-2.2 0.5-2.7 0.1-2.2-0.5-0.7-0.8-0.4-2.5-0.5-2.6-1.6-1.5 0.1-1.4 0.7-1.4 0.1-1.2-1.6-0.5-2.4 0.5-1.9 0.8-1.7 0.7-2-0.4-1.1 0.9-1.1 1.4-1.1 0.6-0.9-0.1-2.4-0.3-1.5-0.9-2.5-0.3-1.6-0.4-3.9-0.4-1.5-0.1-1.3 0-5.7-0.2-2.1-0.1-2.3 0.2-2.3 0.6-1.8 1.3-1 2.6-1 1.2-1 0.9-1.9 0-1.8-0.7-1.2-2.5-1-3.3-4.2-1-0.9-2.8-2.6-0.3-0.9-0.1-0.8-1.5-5.9-0.4-1.1-0.5-0.7-1.3 0.1-3.1 2.2-0.8 0.1-0.3-0.6-0.1-0.1-0.1-0.2-0.1-0.9 0-0.5 0.2-0.9 0.2-2.5-0.1-0.8-0.3-0.7 0.2-2.3-0.6-1.7-1.6-2.1-0.5-1-0.2-0.9-0.1-0.8-0.3-0.8-0.5-0.8-5.5-3.9-1.1-1.4-1.5-3.4-0.9-1-2.3 0.9-1-1.3-1.1-1.8-1-1.1-0.7 0-0.7 0.3-0.7 0-1.5-1.2-1.7-0.2-2.3-1.3-3-0.3-0.1-0.2 0-1-0.1-0.2-2.5-0.8-8.6-0.1-1.2-1.1-0.1-0.5 0-0.7 0-0.6-0.3-0.3-0.2-0.1-0.4-0.6-0.5-1-1.1-1.5-0.2-0.6-1.6-2.2-6.8-2-0.7-3.2-2.1-1.4-3.3-3.4-2.8-0.9-1.2-1.1-0.4-1-1.2-3.2-0.2-1.1-0.3-1-0.8-0.6-2.6 0-0.3-0.2-0.2-0.3-0.3-0.9-0.2-0.2-0.4-0.7-2.2-4.1-2.4-2.5-3-2.9-6.1-2.6-0.8-1.2 0.1-2.1 1.1-0.6 0.6-1.7 0-1.8-0.8-1.4-1.8-0.6-2.5-2.6-4.4-0.7-2-1.9 3.5-6.4 1-0.6 10.7 6.5 1.4 0.5 1-0.8 2.1-4.5-4.5-9.7 1.1-3.5 0.6-1.6 0.7-1 8-5.4 12 2.1 0.9 0.8 10.5 20.6 2.8 5.5 5.1 5.8 0.5 1.3 0.5 2.6 0.5 1 2.8 5.2 3 2.6 0.5 1 0.9 9.3 0.5 1.9 0.7 0.3 4.2-1.6 1-0.1 1 0.2 9.5 5 6.2-1.1 1.9 0.6 1 1.1 2.8 4.9 0.9 0.4 10.5-6.9 5.9-1 3.4-2 1.3-4.2 0.7-4.4 2.4-1.8 2.8 0.1 7.5 4.1 1.2 2.1 0.9 1.1 5.3 3.7 5.6 1.9 6.7 2.4 3.3 2.9 2.8 4.4 1.2 3.1 0.7 0.9 0.9-0.2 0.8-1.4 0.5-1.8 0.5-1.7 1-1 1 0 2.4-1.7 1-0.2 0.7-0.4 0.5-1 0.5-2.1-0.5-0.9 0.1-0.6 0.2-0.6 0.1-0.8 0.1-4.7 0.2-2.3 0.5-2 1.4-2.9 6.9-6.3 1.7-1 1.7-0.4 4.5 1.6 1-0.2 0.8-0.9 0.6-1.5 0.4-1.5 0.6-1.4 1.2-1.7 0.4-1 0.2-1.4 0.4-1.3 1.6-1.5 0.3-1.4-0.1-0.7-0.3-0.5-0.7-0.7-0.3-0.6-0.1-0.5 0.1-0.4-0.1-0.4-0.5-1.6 0-0.7 0.3-1 0-0.7 0.1-3.4 0-0.5 0.2-0.3 0.1-0.5 0.1-0.8-0.1-0.7-0.5-1.9-0.2-0.5-0.6-2.8 0.1-2.8 1.4-8.4 0.4-1.4 3.4-6.1-0.2-0.9-1.1-4.1 0.9-2.4 0.4-0.6 0.3-0.9 0-2.5 0.2-1.3 0.6-1.1-0.2-0.8-0.4-0.6-0.2-0.6 0.5-1.2 2.3-1.8 0.9-1.8 0.7-2.3 0-2.5-0.9-2.4-0.6-1-0.1-1 0.3-1.1 0.4-1.3 0.9-1.5 1-0.8 5.5-1.6 0.7-0.4 0.4-0.8 0.5-1 1.7-2.8 1.8-3.9 3.7-4.4 1.1-2.2-0.4-1.9 0.3-0.8 1.3-1.9 0.8-2.1 1.2-0.7 6.4-1.1 2.4 0.7 3.4-1 1.2 0.4 2 1.5 1.1-0.3 1 0.1 2.7 2.1 0.7 0.1 7.9-3 1.5-2-0.3-0.3-0.5-0.7-0.3-0.2 0.4-1 0.5-0.3 0.6 0 0.6-0.3 2.4-3.1 4.4-2.2 0.3-1.9 1.5-2.3 1.9-0.7 4.7 1 2.8-1.7 1.1 0.5 1.1 1.8 2 4.8 6.9 12.4 0.8 0.9 7.1 3.2 0 3.6 0.9 2.2 1.4 1.2 1.4 0.6 12 5.9 12.1 6 0.6 1.1 2 8.3 5.3 12.8-4.3 9.2-13.5 16.8-0.4 1.4-0.3 2.3-0.7 7.7 0 1.7 0.5 1.1 4.2 5.5z m-242.1 780.2l-0.3-1.7 0.4-0.7 0.7 0.3 0.7 1.1 0 2.7-0.1 1.3-0.2 1.1-0.2 0-0.4-0.7-0.6-0.2-0.6 0.3-0.2 0.8-0.2 0.2-0.4-0.9-0.4-1.2-0.3-0.9-0.1-1.1 0-1.2 0.2-0.9 0.6-0.4 0.4 0.5 0 0.9 0.2 0.8 0.8-0.1z m-33.8-6.1l1.3-1.8 1.5-0.8 1.6 0.1 1.5 1-0.3 0.8-0.4 0.4-0.9 0.7 0.7 0.1 0.2 0.3 0 0.6-0.4 0.7-0.5 0.3-0.5 0-1-0.3-0.4 0-1 0.4-0.3 0.3-0.4 0-0.4-0.4-0.4-0.5-0.4-0.4 0.6-0.5 0.7-0.1 1.5 0.1-0.3-0.9-0.6-0.2-1.4 0.1z m9.2-4.1l2-0.5 2 0 1.3 1 0 0.5-0.4 0-0.4 0-0.4 0.2-0.3 0.3 0.2 0.2 0.6 0.9-2.9 0 1.3 0.4-0.3 0.3-0.4 0.2-0.4 0.1 0.2 0.2 0.2 0.3-0.9 0.9-1.1 0.6-1.2 0.1-0.9-0.6 0.3-0.4 0.1-0.2-0.1-0.9 0.5-0.5 0.2-0.1 0-0.4-0.7-0.4 0.2-0.8 0.5-0.9 0.8-0.5z m-14.5-1.6l0.6 1.1 0.9 0.5 2.1 0 0 0.5-1.5-0.1-0.6 0.5-0.2 1.2-0.3 0-0.3-0.6-0.5-0.3-1.2-0.2-0.6-0.2-0.3-0.5-0.4-0.3-0.7 0 0.5-1 0.8-0.4 1.7-0.2z m26.1 0l0.5 1.1-2.2 2 0.2 0.2 0.5 0.7 0.3 0.2-1.1 1.3-1.2 0.2-1-1-0.5-2.1 0.5-0.3 1.8-0.7 1-1.2 0.6-0.4 0.6 0z m139 0.3l0.3-0.6 0.6-0.2 1.4 0.1-0.5 1-0.4 0.3-0.6 0.3-0.6-0.1-0.2-0.8z m-133.4 0.3l0.5-1.5 0.8-1.4 1-0.8 0.7 0.6 0.2 1.8-1 1.9-1.4 0.8-0.8-1.4z m126.3-2.6l-1.2-0.3-0.8-1.2-0.2-1.5 0.7-1.3 0.6 0.4 3.2 3.4-0.3 0.5-0.6 0.3-0.6 0.5-0.4 0.7 0.1 1.1-0.9-0.6-0.3-0.3 0.1-0.5 0.6-1.2z m-102.8-0.2l0.8-1.8 0.9-1.5 1.1-0.8 1.3 0.2-0.2 1.7-0.7 1-0.9 0.7-0.8 0.9-0.3 0.8-0.1 0.7-0.3 0.6-1 0.5-0.2 0.6 0 0.8 0.2 0.9-0.2 0.1-0.2 0.1-0.1 0.2-0.2 0.2 0.2 0 0.5 0.5-0.1 0.7-0.1 0.3 0.5 2.3-1.3 2.1-3 2.7 0 0.5 0.3-0.1 0.2 0.2 0.5 0.4-0.4 0.5-0.5 1.3-0.1 0.3-0.9-0.2-0.4 0.1-0.5 0.6-0.5-1.4-0.5-1.2-0.3 0.8-1.2 1.5-0.2 0.1-0.2 0.3 0.1 0.9-0.2 0 0-1.1-0.1-0.7-0.3-0.2-0.4 0.5-0.2-0.9 0.2-0.6 0.4-0.6 0.1-1-0.4 0.6-1.3 1.3-0.6 0.9-1.7 0.5-0.6 0.3 0-1.9 0.1-0.9 0.2-0.8-0.2-1 0.1-0.9 0.1-0.8-0.1-0.6-0.5-0.5-1-0.6-0.4-0.7 0.7-0.3 1.4-1 0.8-0.2 3.7 0 0-0.5-6.9-0.6 0.4-1.6 0.3-2.1 0.5-1.6 1.1-0.3-0.8 1.9-0.2 0.8 0.6 0.4 3.7-0.7 1.3-1 0.7-0.4 7.2-1.1 1.1-1.1z m-27.3-5.4l0.9-0.2 4.4 0.4 2.6 1 0.7 0.8-0.1 0.9-0.2 0.4-0.7 0.3-0.3-0.1-0.2-0.3-0.3-0.2-0.3 0.3-0.2 0.2-0.4 0.5-0.2 0.1-1.7 0.4-0.5-0.1 0.6-0.8-0.5-0.8-0.8-0.4-0.9 0-0.6 0.2 1.5 0-0.7 1.5-1-0.3-1-0.6-0.7 0.1-0.4 0-0.1-1.1 0.3-1.3 0.8-0.9z m10.4-0.5l-0.7 0.4-0.7 0.1-1.4-0.5 0.6-1.3 0.8-0.8 0.9-0.4 0.9-0.1 0.1 0.2 0 0.3 0 0.3 0 0.2 1 0.6 0.6 0 0.5 0 0.4 0.2 0.3 0.8-0.8 0.9-1.1 0.7-1.1 0.4-1.1 0 0.3-0.4 0.2-0.5 0.3-1.1z m-14.4-1l-0.7 0.4-0.7 0.1-0.7-0.2-0.7-0.3-0.2 0.1-0.1 0.2-0.3 0.2-0.2 0 0-0.2 0-0.7 0-0.2-0.8-0.7-0.4-0.2-1.2-0.3-0.8-0.5-0.8-0.7-0.3-0.9 0.3-0.8 0.6-0.7 0.7-0.3 0.7 0 0-0.5-1.8-2 0.1-1 0.3-0.8 0.3-0.4 0.6 0.1 0.5 0.6 1.7 1.1 0.3 0.6 0.1 0.7 0.3 0.4 0.4 0.1 0.3 0.1 0.7 1.6 0 0.4-1.1-0.3-0.5-0.1-0.4 0.4 0.4 0.5 1.1 0.5 0.5 0.6-0.3 0.5 1.2-0.1 0.5 0.3 0.4 0.8-0.9 0.5-0.4 0.1 0.6 0.3 0.3 0.1 0.4 0 0 0.6z m-10.1-11.1l-0.4 0.8-0.5 0.9-0.5 0.3-0.2-0.7 0.3-1.5 0.9-1.8 1-1.3 0.8 0-0.1 1-0.4 0.8-0.9 1.5z m-15 0l-0.7-0.4-1.3-0.2-0.6-0.6 0.4-1.6-0.3-0.9-0.5-0.8-0.4-1.4 0.8 0 1.1 1.4 0.9 1.7 0.1 0.7 0.7 2.1-0.2 0z m2.7-5.9l0.7 1.3 1.8 0.3 0.8 1-0.2 0-0.1 0.1-0.1 0.1-0.3-0.2-0.2 0.7-0.1 0.7 0.1 0.6 0.2 0.5-0.6-0.1-0.5 0.4-0.1 0.6 0.4 0.7-0.9-0.5-0.9-0.9-0.8-1.4-0.4-1.9-0.5 0.8-0.4 0.3-0.3-0.5-0.1-1.3 0.3-1.1 0.7-0.3 1.5 0.1z m-3.5-0.5l-0.6 0-0.3-0.4-0.2-0.7-0.2-0.5-0.7-0.2-0.4-0.2-0.4-0.6-0.3-1.1 0.2-0.5 0.9-0.5 0.2-0.5 0.1-0.6 0.2-0.3 0.5 0.4 0 0.6 0.1 0.6 0.3 0.5 0.3 0.4-0.3 1-0.1 1.2 0.1 0.8 0.6 0.1 0 0.5z m-1.3-23.8l-1.2 0-0.5-0.2-0.6-0.4 1-0.8 1.8 0.8 0.8-0.5-0.1-0.3-0.1-0.2 0-0.3-0.1-0.3 0.3-0.1 0.3-0.6 0.2-0.3-1.1-1.5-0.6-0.5-0.8-0.1 0.9-1.3 0.6-0.3 0.7 0.1 0.7 1.1 0.5 0.7 1.4 1.3-0.7 0.8-0.6 0.2-0.4 0.5-0.1 1.6-0.3 0.7-0.7 0.1-0.9-0.3-0.4 0.1z m5.9-186.9l-0.3 1.1 0 1.1 0.2 0.9 0.3 0.9-0.9 0.5-1 0.2-0.5-0.3 0.6-1-0.6-0.1-2.7 2.4 0 0.5 0.3 0.1 0.7 0.4-0.6 0.8-0.7 0.3-1.4 0.1-0.5-0.6-0.4-1-0.5-1.1-0.7-0.7-0.4 0.3-0.6 0.5-0.5 0-0.5-1.3 0.8 0 0-0.6-0.5-0.4-1.1-1.4-0.3-0.7-0.3-0.8-0.5-2.6-0.1-0.9 1.5 1.3 1.5-0.1 1.4-0.6 1.7 0 0 0.5-0.6 0.3-0.5 0.6-0.7 2 0.1 0.7 0 0.1-0.1 0.3 0.5 0.4 2 0.2 0.3 0.2 0.3 0.3 0.3 0.1 0.3-0.3 0.1-0.6-0.1-0.5-0.2-0.5 0-0.4 0.9-1 1.5-0.7 1.5 0 1 1.1z m-3.9-3.4l-0.1-1.3-0.3-0.1-0.5 0.3-0.6 0-1.8-2.2 0.2-0.4 0.2-0.1 0.4 0 1-0.5 1.3-1.2 1.3-0.7 1 1.2 0 1.3-0.6 1.4-1.5 2.3z m136-150.1l1.5-0.2 1 1.2-1.2 0.8-2.5 0-3.1-0.9-2.1 0.2-0.7 1.6-2.9 1.8 1 2.4 2.3-0.2 0.6 0.5-0.5 0.4-0.4 0.1-0.4 0-0.5 0-0.3 0.3-0.4 0.7-0.3 0.2-0.7 0.2-0.8 0-0.4-0.6 0.3-1.3-0.1-0.3-0.4-0.9-0.5-0.9-0.9 2.2-1 0.4-1.3-2.2-0.6-1.5-0.4-1.2-0.2-1.2 0.8-1.1 2.5-2.7 3.3-0.3 3.4-1 1.8 0.7 0.5 1.3-0.9 0.6 0.4 0.6 0.9-0.2 1.1 0.2 2.1 0.3z m-39.9 408.5l0.3 0.3-0.1 0.1 0 0.6-0.4 0.4-0.5 0 0 0.2-0.1 0.1-0.3 0.2-0.5 0.1-0.6-0.5-0.2 0-0.1-0.1 0.2-0.6 0.6-0.8 0.9-0.2 0.8 0.2z m-38-7l1.1-0.1 0.3 0.3-0.2 0.5-0.1 0.7-0.2 0.5-0.2 0.3-0.2 0-0.3 0.4-0.3 1-0.2 0.6-0.3 0.4-0.4-0.4-0.4-1.2 0.2-1 1-0.2 0-0.3-0.3-0.3-0.5 0-0.2-0.3 0.3-0.5 0.9-0.4z m2.6-3.2l0.1 0.5 0.1 0.5-0.2 0.6-0.4 0.3-0.4 0.1-0.2-0.1 0.1-0.3-0.2 0-0.5 0.3-0.6 0.3-1 0-0.4 0-0.6-0.1 0-0.2 0.4-0.5 0.3-0.7 0.4-0.6 0.2-0.3 0.4-0.4 1-0.5 0.7 0.1 0.5 0.4 0.3 0.6z m-35.8-1.4l0.3 0.1 0.5 0.4-0.2 0.6-0.7 0.2-0.6 0.1-1-0.2-0.2-0.2-0.3-0.6 0.2-0.5 0.5-0.3 0.5-0.2 0.5 0.5 0.5 0.1z m11.9-4.6l2.3-0.9 0.4 0.6-0.6 1.4-0.9 0.6-0.9 0.3 0 0.3 0.5 0.5 0.1 0.4-0.5 0.1-0.9 0-0.4-0.2 0.2-0.2 0-0.3-0.1-0.6 0.1-0.4 0.2-0.2 0-0.2 0-0.5 0.2-0.5 0.3-0.2z m-12.2-7l-0.2 0.1-0.1-0.1 0.2-0.3 0.6-0.5 0.5-0.1-0.1 0.4-0.4 0.4-0.5 0.1z m-0.9 0.3l-0.5 0.3-0.7 0-0.6-0.2-0.5-0.7-0.4 0-0.4-1.1 0.2-0.5 0.6 0 0.5 0.1 0.6-0.2 1.3 0 0.5 0.2 0 0.5-0.6 1.6z m12.6-6.4l-0.3 0.7-3.3 1.1-0.4 0.1-0.8-0.2-0.4-0.6 0-0.4 0.2-0.3 3.4-0.9 1.1-0.1 0.5 0.6z m-3.4-1.2l0 0.6-3.5 1.7-0.3-0.1 0.7-1.3 0.6-0.6 0.3-0.1 2.2-0.2z m-32.1 0l0.5 1 0.2 0.9-0.1 0.4-0.1 0.1-0.3-0.2-0.2 0.1-0.2-0.3 0-0.5-0.1-0.2-0.3-0.1-0.7 0.2-0.3-0.5 0-0.5 0.3-0.4 0.1-0.5 0.5-0.1 0.7 0.6z m194.7-4.7l1.6 1.1 0.3 0.3-0.1 0.4-0.5 0.5-2.4 0.7-0.5 0.6-0.4 1.5-0.3 0-0.5-0.5-0.7-1.4 0.2-0.6 1.8-0.4 0.5-0.4 0.2-0.4 0-0.6 0.2-0.4 0.3-0.4 0.3 0z m-169.3-226l0.3 0 1 1.7-0.1 0.6-0.4 1-0.6 0.4-0.6 0-0.3-0.3 0.1-0.6-0.2-0.2-0.2 0.1-0.1 0.4 0 0.4-0.2 0.2-0.2 0-0.3-0.2-0.1-0.6 0.1-1 0.4-0.9 0.5-0.3 0.8 0.5 0.3-0.1-0.2-0.4-0.5-0.5-0.2-0.4 0.2-0.1 0.2 0 0.2 0.2 0.1 0.1z m4.4 5.8l-0.3 0.1-1.9-0.9-0.2-0.4 0.1-0.3-0.1-0.4-0.5-0.3 0.1-0.4 0.3-0.2 0.2-0.2 0.2-0.5-0.2-0.8-0.4-0.7-0.1-0.5 0.4-0.2 0.5-0.2 0.6-0.4 0.5 0.2 0.3 0 0.3 0.3 0.3 0.6 0.4 0.3 0.2 0 0-0.4 0.2-0.2 0.4 0.1 0.2 0.2 0.2 0.4 0.2 0 0.3-0.2 0.1-0.4 0.1-0.7 0.2-0.6 0.3-0.4 0.1-0.2 0.2 0.1 0.2 0.7 0 0.4 0.1 1 0.3 0.6-0.1 0.3-0.4 0.8-0.4 1.1-0.5 0.5-0.8 0-1.2-1.2-1.5 0.3 0 0.2 0.9 0.3 0.7 0.4 0.2 0.9-0.2 0.5-0.3 0.1-0.2 0.1 0 0.2z m-6.9-6.6l-0.3-0.1-0.1-0.4 0.1-0.2 0.1-0.3 0.1-0.4 0.2-0.4 0.2-0.5 0.2-0.4 0.2-0.3 0.2-0.4 0.2-0.4 0.3-0.5 0.7-0.1 0.6 0.2 0.6-0.4 0.5-0.1 0.2 0.2 0.1 0.1 0.4 0.2 0.4-0.1 0.2 0.1 0 0.2-0.3 0.2-0.3 0.1 0 0.3 0.2 0.5-0.3 0.6-0.7 0.2-1.2-0.7-0.5 0.2-0.4 0.8-0.2 0.4-0.4 0.6-0.7 0.7-0.3 0.1z m31.4-37.2l0.6 0 0.2 0.3-0.1 0.3-0.2 0.1 0 0.2 0 0.5-0.2 0.5-0.1 0.3-0.1 0.5-0.3 0.8-0.3-0.2-0.4-0.4-0.2 0.3 0.1 0.6-0.1 0.5-0.5 0.1-0.3 0.4-0.6 0.2-0.7-0.6-0.6-0.8-0.4-1.2-0.2-0.3-0.2-0.3 0-0.4 0.8-0.6 0.3-0.3 0.3-0.4 0.6-0.6 1-0.5 0.7 0.1 0.3 0.6 0.2 0.5 0.2 0.1 0.1-0.2 0.1-0.1z m-11.4 306.3l0.4 0.1 0.1 0.1-0.3 0.4-2.2 1.3-0.6 0.1-0.5-0.2 0-0.6 0.3-0.4 0.2 0 0.2 0 0.9-0.5 0.8-0.1 0.3-0.2 0.4 0z m-33.2-28l0.5 0 0.4 0.2-0.1 0.7-0.5 0.6-0.1 0.5-0.2 0.4-0.3 0.1-0.2-0.1-0.4 0.1-0.5-0.4 0-1 0.3-1.2 0.6-1 0.6 0 0.1 0.7-0.3 0.2 0.1 0.2z m-12.6-45l0.2 0.1 0.1 1-0.2 0.6-0.5-0.2-1.5-0.9-0.1 0.1-0.2-0.1 0-0.3-0.2-0.3-0.4-0.3 0.2-0.3 0.6-0.2 0.6 0.3 0.1 0.7 0 0.2 0.4-0.1 0.2 0 0.2 0.2 0.2-0.1 0.3-0.4z m6-24.7l0.2 0.2 0.1 0.2-0.3-0.1-1.3-0.7-0.7 0.4-0.6 0-0.2-0.1 0.1 0-0.1-0.3-0.2-0.7 0.2-0.4 0.2-0.1 0.2-0.2 0-0.2 0.2-0.5 0.6-0.4 0.4 0.3-0.2 0.7 0.2 0.7 1.2 1.2z m3.6-35.4l0.1 0.1 0.1 0.3-0.1 0.3-0.3 0-0.2 0.2-0.1 0.4-0.2 0-0.8-0.3-0.7-0.4 0-0.2 0.4-0.1 0.5-0.8 1.3 0.5z m-11.5-104.4l-0.7-0.6-0.3 0.3-0.5 0.3-0.8-0.6-0.4-0.8 0-0.3 0.2-0.1 0.2 0.2 0.1 0.2 0.2-0.4 0.2-0.6-0.3-0.3-0.4-0.4-0.4-0.7 0-0.7 0.2-0.4 0.3-0.3 0.3 0 0.1 0.3 0.2 0.2 0.9 0.4 0.4 0.4 0.4 0.6 0.3 0.9 0.2 1.2 0.1 0.8-0.2 0.3-0.3 0.1z" id="FI" name="Finland">
  </path>
 </g>
 <g id="points">
  <circle class="60.32442881661916|21.170482549078194" cx="317.8" cy="916.5" id="0">
  </circle>
  <circle class="64.43006315150092|26.643662686809307" cx="520.2" cy="588.3" id="1">
  </circle>
  <circle class="69.56210607010311|31.022206796994197" cx="682.2" cy="100.5" id="2">
  </circle>
 </g>
 <g id="label_points">
  <circle class="Finland" cx="543.7" cy="687.2" id="FI">
  </circle>
 </g>
</svg>