<?xml version="1.0"?>
    
<!--********* Copyright (c) 2024 Pareto Softare, LLC DBA Simplemaps.com ***************************************
************* Free for Commercial Use, full terms at  https://simplemaps.com/resources/svg-license ************
************* Attribution is appreciated! https://simplemaps.com *******************************************-->

<svg baseprofile="tiny" fill="#6f9c76" height="508" stroke="#ffffff" stroke-linecap="round" stroke-linejoin="round" stroke-width=".5" version="1.2" viewbox="0 0 1000 508" width="1000" xmlns="http://www.w3.org/2000/svg">
 <g id="features">
  <path d="M847.8 167.2l62.3 14.2 34.7 12.8 9.7 15.4-28.9 48.2-42.6 51.3-51.3 41-56.3 16.6-61.7 6.8-48.9 18.7-87.7 60.1-14.4 13.4-7.2 8.6-13 5.6-32.2 4.9-61.1-1.2-30.2-7.8-12.8-15-21.4-34.3-52-23.9-62.6-14.5-53.6-5.8-108.8 2.8-44.2-10.8-18.1-34.6 10.8-39.6 74.7-105.9 10.8-47.4 12.5-26.7 28.1-28.6 33.2-20.2 24.1-4 54.6 7.2 56.2-7.2 69.7-33.3 37.3-10.9 66.6 3.9 64.2 21 188.5 94.1 71 25.1z" id="SG" name="Singapore">
  </path>
 </g>
 <g id="points">
  <circle class="1.273525285523672|103.65854332696819" cx="90.9" cy="461.7" id="0">
  </circle>
  <circle class="1.3472557510892949|103.84006188251652" cx="545.5" cy="277" id="1">
  </circle>
  <circle class="1.4394188330463233|103.98527672695519" cx="909.1" cy="46.2" id="2">
  </circle>
 </g>
 <g id="label_points">
  <circle class="Singapore" cx="487.5" cy="228.6" id="SG">
  </circle>
 </g>
</svg>